<?xml version="1.0" encoding="utf-8"?>
<!-- Generator: Adobe Illustrator 24.0.3, SVG Export Plug-In . SVG Version: 6.00 Build 0)  -->
<svg version="1.1" id="Capa_1" xmlns="http://www.w3.org/2000/svg" xmlns:xlink="http://www.w3.org/1999/xlink" x="0px" y="0px"
	 viewBox="0 0 510.2 510.2" style="enable-background:new 0 0 510.2 510.2;" xml:space="preserve">
<style type="text/css">
	.st0{fill:#95785E;}
</style>
<path class="st0" d="M458.5,132L330,3.5c-2.8-2.8-6.6-4.4-10.6-4.4H102.5c-30.4,0-55.2,24.7-55.2,55.2V456
	c0,30.4,24.7,55.2,55.2,55.2h305.3c30.4,0,55.2-24.7,55.2-55.2V142.7C462.9,138.7,461.3,134.9,458.5,132L458.5,132z M334.4,50.3
	l77.3,77.3h-52.2c-13.9,0-25.2-11.3-25.2-25.2L334.4,50.3z M407.8,481.1H102.5c-13.9,0-25.2-11.3-25.2-25.2V54.3
	c0-13.9,11.3-25.2,25.2-25.2h201.9v73.4c0,30.4,24.7,55.2,55.2,55.2h73.4V456C432.9,469.8,421.6,481.1,407.8,481.1z"/>
<path class="st0" d="M383.7,416.9H126.6c-8.3,0-15,6.7-15,15s6.7,15,15,15h257.1c8.3,0,15-6.7,15-15S391.9,416.9,383.7,416.9z"/>
<path class="st0" d="M383.7,352.6H126.6c-8.3,0-15,6.7-15,15s6.7,15,15,15h257.1c8.3,0,15-6.7,15-15S391.9,352.6,383.7,352.6z"/>
<path class="st0" d="M383.7,288.3H126.6c-8.3,0-15,6.7-15,15s6.7,15,15,15h257.1c8.3,0,15-6.7,15-15S391.9,288.3,383.7,288.3z"/>
<path class="st0" d="M126.6,254.1h192.8c8.3,0,15-6.7,15-15s-6.7-15-15-15H126.6c-8.3,0-15,6.7-15,15S118.3,254.1,126.6,254.1z"/>
<path class="st0" d="M126.6,189.8H223c8.3,0,15-6.7,15-15V78.4c0-8.3-6.7-15-15-15h-96.4c-8.3,0-15,6.7-15,15v96.4
	C111.6,183.1,118.3,189.8,126.6,189.8z M141.6,93.4H208v66.4h-66.4V93.4z"/>
</svg>
