<?xml version="1.0" encoding="utf-8"?>
<!-- Generator: Adobe Illustrator 24.0.3, SVG Export Plug-In . SVG Version: 6.00 Build 0)  -->
<svg version="1.1" id="Calque_1" xmlns="http://www.w3.org/2000/svg" xmlns:xlink="http://www.w3.org/1999/xlink" x="0px" y="0px"
	 viewBox="0 0 510.2 510.2" style="enable-background:new 0 0 510.2 510.2;" xml:space="preserve">
<style type="text/css">
	.st0{fill:#95785E;}
</style>
<path class="st0" d="M372.5-0.9H137.7C61.3-0.9-0.9,61.3-0.9,137.7v234.8c0,76.4,62.2,138.6,138.6,138.6h234.8
	c76.4,0,138.6-62.2,138.6-138.6V137.7C511.1,61.3,448.9-0.9,372.5-0.9z M481.1,372.5c0,59.9-48.7,108.6-108.6,108.6H137.7
	c-59.9,0-108.6-48.7-108.6-108.6V137.7c0-59.9,48.7-108.6,108.6-108.6h234.8c59.9,0,108.6,48.7,108.6,108.6V372.5z"/>
<path class="st0" d="M255.1,115.1c-77.2,0-140,62.8-140,140s62.8,140,140,140s140-62.8,140-140S332.3,115.1,255.1,115.1z
	 M255.1,365.1c-60.6,0-110-49.3-110-110c0-60.6,49.3-110,110-110c60.6,0,110,49.3,110,110C365.1,315.8,315.8,365.1,255.1,365.1z"/>
<path class="st0" d="M398.5,65.4c-22.8,0-41.4,18.6-41.4,41.4c0,22.8,18.6,41.4,41.4,41.4s41.4-18.6,41.4-41.4
	S421.3,65.4,398.5,65.4z M398.5,118.1c-6.3,0-11.4-5.1-11.4-11.4c0-6.3,5.1-11.4,11.4-11.4c6.3,0,11.4,5.1,11.4,11.4
	C409.8,113,404.7,118.1,398.5,118.1z"/>
</svg>
