<?xml version="1.0" encoding="utf-8"?>
<!-- Generator: Adobe Illustrator 24.0.3, SVG Export Plug-In . SVG Version: 6.00 Build 0)  -->
<svg version="1.1" id="Calque_1" xmlns="http://www.w3.org/2000/svg" xmlns:xlink="http://www.w3.org/1999/xlink" x="0px" y="0px"
	 viewBox="0 0 900 885.3" style="enable-background:new 0 0 900 885.3;" xml:space="preserve">
<style type="text/css">
	.st0{fill:#95785E;}
</style>
<title>logo</title>
<path class="st0" d="M605.5,20.2v10.7C771.8,93.7,890,254.4,890,442.6c0.1,53.9-9.8,107.3-29.1,157.6l8.5,5.7
	c20.3-52.1,30.6-107.4,30.5-163.3C900,248.8,777.4,83.5,605.5,20.2z"/>
<path class="st0" d="M719.3,790.6L378.6,561.6H535c45-0.2,82.9-13.2,109.6-37.5c24.1-22,37.4-51.6,37.4-83.5s-13.3-61.5-37.4-83.4
	c-26.7-24.4-64.6-37.4-109.7-37.6H368.6V0C158.9,38.3,0,221.9,0,442.6c0,36.7,4.5,73.3,13.3,109h10.3c-18.5-72.9-18.2-149.3,1-222
	h333.9v553.7c3.3,0.7,6.6,1.3,10,1.9V566.9l342.3,230l0,0l8.8,5.9c2.8-2.1,5.6-4.3,8.4-6.5L719.3,790.6L719.3,790.6z M534,329.6
	c94.8,0,138,57.5,138,111c0,29-12.1,56-34.1,76.1c-25,22.9-61,34.9-103.9,34.9H368.6v-222H534z M27.4,319.6
	C72.3,165.2,199.6,45.8,358.6,12.2v307.5H27.4z"/>
</svg>
