<?xml version="1.0" encoding="utf-8"?>
<!-- Generator: Adobe Illustrator 24.0.3, SVG Export Plug-In . SVG Version: 6.00 Build 0)  -->
<svg version="1.1" id="Capa_1" xmlns="http://www.w3.org/2000/svg" xmlns:xlink="http://www.w3.org/1999/xlink" x="0px" y="0px"
	 viewBox="0 0 510.2 510.2" style="enable-background:new 0 0 510.2 510.2;" xml:space="preserve">
<style type="text/css">
	.st0{fill:#95785E;}
</style>
<path class="st0" d="M463.1,63.1h-416c-26.5,0-48,21.5-48,48v288c0,26.5,21.5,48,48,48h416c26.5,0,48-21.5,48-48v-288
	C511.1,84.6,489.6,63.1,463.1,63.1z M463.1,95.1c2.2,0,4.2,0.5,6.1,1.2L255.1,281.9L41,96.4c1.9-0.8,4-1.2,6.1-1.2L463.1,95.1z
	 M463.1,415.1h-416c-8.8,0-16-7.2-16-16v-269l213.5,185c3,2.6,6.8,3.9,10.5,3.9c3.7,0,7.5-1.3,10.5-3.9l213.5-185v269
	C479.1,407.9,471.9,415.1,463.1,415.1z"/>
</svg>
