<?xml version="1.0" encoding="utf-8"?>
<!-- Generator: Adobe Illustrator 24.0.3, SVG Export Plug-In . SVG Version: 6.00 Build 0)  -->
<svg version="1.1" id="Calque_1" xmlns="http://www.w3.org/2000/svg" xmlns:xlink="http://www.w3.org/1999/xlink" x="0px" y="0px"
	 viewBox="0 0 566.9 566.9" style="enable-background:new 0 0 566.9 566.9;" xml:space="preserve">
<style type="text/css">
	.st0{fill:#92D0CF;}
	.st1{fill:#FFFFFF;}
</style>
<rect x="0.4" y="0.7" class="st0" width="566.2" height="565.8"/>
<g>
	<path d="M114.4,209.6h-6.8l0,18.5h7.1c16.7,0,29.9,8.2,29.9,22.1v5.6h18.5v-5.6C163.2,227.8,141.2,209.6,114.4,209.6z"/>
	<path d="M232.8,209.6H223c-22.8,0-41.4,18.6-41.4,41.4v4.9h18.5v-4.9c0-12.6,10.3-22.9,22.9-22.9h9.8c12.6,0,22.9,10.3,22.9,22.9
		v4.9h18.5v-4.9C274.2,228.2,255.6,209.6,232.8,209.6z"/>
	<path d="M454.9,209.6h-9.8c-22.8,0-41.4,18.6-41.4,41.4v4.9h18.5v-4.9c0-12.6,10.3-22.9,22.9-22.9h9.8c12.6,0,22.9,10.3,22.9,22.9
		v4.9h18.5v-4.9C496.3,228.2,477.7,209.6,454.9,209.6z"/>
	<path d="M223,357.6h9.8c22.8,0,41.4-18.6,41.4-41.4v-4.9h-18.5v4.9c0,12.6-10.3,22.9-22.9,22.9H223c-12.6,0-22.9-10.3-22.9-22.9
		v-4.9h-18.5v4.9C181.7,339,200.3,357.6,223,357.6z"/>
	<g>
		<rect x="70.6" y="209.6" width="18.5" height="46.3"/>
	</g>
	<g>
		<rect x="292.7" y="209.6" width="18.5" height="46.3"/>
	</g>
	<rect x="70.6" y="209.6" width="37" height="18.5"/>
	<rect x="70.6" y="311.3" width="92.5" height="18.5"/>
	<rect x="70.6" y="265.1" class="st1" width="18.5" height="37"/>
	<rect x="70.6" y="311.3" width="18.5" height="46.3"/>
	<rect x="292.7" y="311.3" width="18.5" height="46.3"/>
	<rect x="403.8" y="311.3" width="18.5" height="46.3"/>
	<rect x="477.8" y="311.3" width="18.5" height="46.3"/>
	<rect x="107.6" y="265.1" class="st1" width="18.5" height="37"/>
	<rect x="181.7" y="265.1" class="st1" width="18.5" height="37"/>
	<rect x="218.7" y="265.1" class="st1" width="18.5" height="37"/>
	<rect x="255.7" y="265.1" class="st1" width="18.5" height="37"/>
	<rect x="292.7" y="265.1" class="st1" width="18.5" height="37"/>
	<rect x="329.7" y="265.1" class="st1" width="18.5" height="37"/>
	<rect x="366.7" y="265.1" class="st1" width="18.5" height="37"/>
	<rect x="403.8" y="265.1" class="st1" width="18.5" height="37"/>
	<rect x="440.8" y="265.1" class="st1" width="18.5" height="37"/>
	<rect x="477.8" y="265.1" class="st1" width="18.5" height="37"/>
	<rect x="144.7" y="265.1" class="st1" width="18.5" height="37"/>
	<rect x="292.7" y="339.1" width="92.5" height="18.5"/>
</g>
</svg>
