<svg id="Calque_1" data-name="Calque 1" xmlns="http://www.w3.org/2000/svg" xmlns:xlink="http://www.w3.org/1999/xlink" viewBox="0 0 595.28 841.89"><defs><style>.cls-1{fill:#151327;}.cls-2{fill:url(#linear-gradient);}.cls-3{fill:url(#Dégradé_sans_nom_13);}.cls-4{fill:url(#Dégradé_sans_nom_52);}.cls-5{fill:url(#Dégradé_sans_nom_13-2);}.cls-6{fill:url(#linear-gradient-2);}.cls-7{fill:url(#linear-gradient-3);}.cls-8{fill:url(#Dégradé_sans_nom_37);}.cls-9{fill:url(#Dégradé_sans_nom_43);}.cls-10{fill:url(#Dégradé_sans_nom_50);}.cls-11{fill:url(#Dégradé_sans_nom_27);}.cls-12{fill:url(#Dégradé_sans_nom_30);}.cls-13{fill:url(#Dégradé_sans_nom_34);}.cls-14{fill:url(#Dégradé_sans_nom_55);}.cls-15{fill:url(#Dégradé_sans_nom_13-3);}.cls-16{fill:url(#Dégradé_sans_nom_7);}.cls-17{fill:url(#linear-gradient-4);}.cls-18{fill:url(#linear-gradient-5);}.cls-19{fill:url(#linear-gradient-6);}.cls-20{fill:url(#linear-gradient-7);}.cls-21{fill:url(#linear-gradient-8);}</style><linearGradient id="linear-gradient" x1="223.3" y1="410.34" x2="367.84" y2="410.34" gradientUnits="userSpaceOnUse"><stop offset="0" stop-color="#784900"/><stop offset="0.5" stop-color="#e7b062"/><stop offset="1" stop-color="#875400"/></linearGradient><linearGradient id="Dégradé_sans_nom_13" x1="294.41" y1="339.19" x2="296.71" y2="339.19" gradientUnits="userSpaceOnUse"><stop offset="0" stop-color="#e7b062"/><stop offset="0.56" stop-color="#875400"/><stop offset="1" stop-color="#784900"/></linearGradient><linearGradient id="Dégradé_sans_nom_52" x1="294.38" y1="409.64" x2="305.11" y2="409.64" gradientUnits="userSpaceOnUse"><stop offset="0" stop-color="#e1a95b"/><stop offset="0.31" stop-color="#dfa759"/><stop offset="0.45" stop-color="#d7a053"/><stop offset="0.56" stop-color="#cb9448"/><stop offset="0.65" stop-color="#b88438"/><stop offset="0.73" stop-color="#a16e23"/><stop offset="0.8" stop-color="#84540a"/><stop offset="0.83" stop-color="#784900"/><stop offset="1" stop-color="#875400"/></linearGradient><linearGradient id="Dégradé_sans_nom_13-2" x1="295.55" y1="339.58" x2="295.61" y2="339.58" xlink:href="#Dégradé_sans_nom_13"/><linearGradient id="linear-gradient-2" x1="302.92" y1="416.19" x2="337.03" y2="416.19" xlink:href="#linear-gradient"/><linearGradient id="linear-gradient-3" x1="254.09" y1="416.2" x2="288.19" y2="416.2" xlink:href="#linear-gradient"/><linearGradient id="Dégradé_sans_nom_37" x1="295.64" y1="397.23" x2="362.09" y2="397.23" gradientUnits="userSpaceOnUse"><stop offset="0" stop-color="#e7b062"/><stop offset="0.61" stop-color="#784900"/><stop offset="1" stop-color="#875400"/></linearGradient><linearGradient id="Dégradé_sans_nom_43" x1="296.07" y1="409.98" x2="350.43" y2="409.98" gradientUnits="userSpaceOnUse"><stop offset="0" stop-color="#e7b062"/><stop offset="0.64" stop-color="#784900"/><stop offset="1" stop-color="#875400"/></linearGradient><linearGradient id="Dégradé_sans_nom_50" x1="298.6" y1="434.91" x2="323.39" y2="434.91" gradientUnits="userSpaceOnUse"><stop offset="0" stop-color="#e7b062"/><stop offset="0.02" stop-color="#d9a355"/><stop offset="0.08" stop-color="#bb873b"/><stop offset="0.14" stop-color="#a27025"/><stop offset="0.21" stop-color="#8f5f15"/><stop offset="0.3" stop-color="#825209"/><stop offset="0.4" stop-color="#7a4b02"/><stop offset="0.6" stop-color="#784900"/><stop offset="1" stop-color="#875400"/></linearGradient><linearGradient id="Dégradé_sans_nom_27" x1="229" y1="397.26" x2="295.46" y2="397.26" gradientUnits="userSpaceOnUse"><stop offset="0" stop-color="#784900"/><stop offset="0.29" stop-color="#875400"/><stop offset="1" stop-color="#e7b062"/></linearGradient><linearGradient id="Dégradé_sans_nom_30" x1="240.67" y1="410.02" x2="295.03" y2="410.02" gradientUnits="userSpaceOnUse"><stop offset="0" stop-color="#784900"/><stop offset="0.28" stop-color="#8d5900"/><stop offset="1" stop-color="#e7b062"/></linearGradient><linearGradient id="Dégradé_sans_nom_34" x1="267.71" y1="433.73" x2="292.56" y2="433.73" gradientUnits="userSpaceOnUse"><stop offset="0" stop-color="#784900"/><stop offset="0.34" stop-color="#875400"/><stop offset="0.54" stop-color="#895603"/><stop offset="0.67" stop-color="#925e0b"/><stop offset="0.77" stop-color="#a06c19"/><stop offset="0.86" stop-color="#b47f2e"/><stop offset="0.94" stop-color="#cd9748"/><stop offset="1" stop-color="#e7b062"/></linearGradient><linearGradient id="Dégradé_sans_nom_55" x1="286.06" y1="409.64" x2="296.79" y2="409.64" gradientUnits="userSpaceOnUse"><stop offset="0" stop-color="#784900"/><stop offset="0.23" stop-color="#875400"/><stop offset="0.25" stop-color="#935f0c"/><stop offset="0.3" stop-color="#ad7827"/><stop offset="0.37" stop-color="#c28d3d"/><stop offset="0.44" stop-color="#d39d4e"/><stop offset="0.53" stop-color="#dfa859"/><stop offset="0.65" stop-color="#e5ae60"/><stop offset="1" stop-color="#e7b062"/></linearGradient><linearGradient id="Dégradé_sans_nom_13-3" x1="294.42" y1="346.47" x2="366.69" y2="346.47" xlink:href="#Dégradé_sans_nom_13"/><linearGradient id="Dégradé_sans_nom_7" x1="224.45" y1="346.56" x2="296.72" y2="346.56" gradientUnits="userSpaceOnUse"><stop offset="0" stop-color="#784900"/><stop offset="0.3" stop-color="#875400"/><stop offset="0.44" stop-color="#8c5800"/><stop offset="1" stop-color="#e7b062"/></linearGradient><linearGradient id="linear-gradient-4" x1="271.99" y1="537.67" x2="271.99" y2="503.84" xlink:href="#linear-gradient"/><linearGradient id="linear-gradient-5" x1="295.4" y1="537.67" x2="295.4" y2="503.9" xlink:href="#linear-gradient"/><linearGradient id="linear-gradient-6" x1="356.42" y1="537.67" x2="356.42" y2="503.54" xlink:href="#linear-gradient"/><linearGradient id="linear-gradient-7" x1="232.83" y1="537.86" x2="232.83" y2="503.84" xlink:href="#linear-gradient"/><linearGradient id="linear-gradient-8" x1="319.87" y1="537.67" x2="319.87" y2="503.9" xlink:href="#linear-gradient"/></defs><title>ukiyo</title><rect class="cls-1" width="595.28" height="841.89"/><path class="cls-2" d="M295.57,482.61a72.27,72.27,0,1,1,72.27-72.27A72.35,72.35,0,0,1,295.57,482.61Zm0-142.24a70,70,0,1,0,70,70A70.05,70.05,0,0,0,295.57,340.37Z"/><rect class="cls-3" x="294.41" y="338.81" width="2.3" height="0.77"/><path class="cls-4" d="M296.7,481l-2.12-.9c3.4-7.91,8-18.74,8.22-35.22.08-6.41-.72-15.31-1.2-20.62l-.14-1.64c-.34-3.82-.74-7.73-1.21-12.24-1.42-13.8-3.38-32.7-5.87-72l2.3-.15c2.49,39.27,4.44,58.15,5.86,71.93.46,4.53.87,8.44,1.21,12.28l.14,1.63c.48,5.36,1.29,14.33,1.22,20.86C304.92,461.87,300.17,473,296.7,481Z"/><polygon class="cls-5" points="295.61 340.73 295.57 340.73 295.55 338.43 295.61 340.73"/><path class="cls-6" d="M303.3,429.49l-.38-2.27c.29,0,.58-.09.86-.15l.46-.08a43.49,43.49,0,0,0,22.13-11.92A43.8,43.8,0,0,0,335,402.9l2.08,1a46.13,46.13,0,0,1-22,21.92,44.91,44.91,0,0,1-10.46,3.46l-.16,0-.27,0Z"/><path class="cls-7" d="M287.93,429.5c-.3,0-.59-.09-.87-.14l-.58-.12A45.24,45.24,0,0,1,276,425.8a46.09,46.09,0,0,1-21.94-21.92l2.08-1A43.66,43.66,0,0,0,277,423.72a43.14,43.14,0,0,0,9.93,3.27c.19,0,.36.08.53.1s.49.1.72.13Z"/><path class="cls-8" d="M361.34,437.61A100.15,100.15,0,0,1,315.57,405a98.88,98.88,0,0,1-19.93-47.8l2.28-.3a96.58,96.58,0,0,0,19.47,46.69,97.82,97.82,0,0,0,44.7,31.9Z"/><path class="cls-9" d="M349.49,457.21c-9.11-4.09-18.11-10.8-26.75-20-20.61-21.85-24.25-53.47-26-68.67-.25-2.16-.47-4-.68-5.48l2.27-.34c.22,1.5.44,3.38.69,5.55,1.72,15,5.3,46.07,25.39,67.36,8.43,8.94,17.18,15.48,26,19.44Z"/><path class="cls-10" d="M321.39,476.8a155.84,155.84,0,0,1-13.73-30.66c-4.76-14.91-6.39-29.41-8-43.43-.35-3.14-.7-6.27-1.09-9.4l2.29-.28q.57,4.71,1.09,9.43c1.56,13.9,3.18,28.28,7.88,43a153,153,0,0,0,13.53,30.21Z"/><path class="cls-11" d="M229.75,437.64l-.75-2.17a97.84,97.84,0,0,0,44.71-31.9,96.58,96.58,0,0,0,19.47-46.69l2.28.3a98.44,98.44,0,0,1-65.71,80.46Z"/><path class="cls-12" d="M241.61,457.24l-.94-2.1c8.82-4,17.58-10.5,26-19.44,20.09-21.29,23.66-52.4,25.38-67.35.25-2.18.47-4.06.69-5.56l2.28.34c-.22,1.46-.43,3.32-.68,5.48-1.75,15.2-5.39,46.83-26,68.67C259.71,446.44,250.71,453.15,241.61,457.24Z"/><path class="cls-13" d="M269.7,476.83l-2-1.15a153,153,0,0,0,13.53-30.21c5.74-18,7.41-36.7,9-54.83l1.15,0,1.14.17c-1.63,18.25-3.31,37.12-9.13,55.32A155.51,155.51,0,0,1,269.7,476.83Z"/><path class="cls-14" d="M294.47,481c-3.47-8.08-8.22-19.16-8.41-36.09-.07-6.54.74-15.52,1.22-20.89l.14-1.6c.34-3.85.75-7.76,1.21-12.3,1.43-13.78,3.37-32.65,5.86-71.91l2.3.15c-2.49,39.3-4.44,58.2-5.87,72-.47,4.52-.87,8.43-1.21,12.26l-.14,1.61c-.48,5.32-1.28,14.23-1.2,20.65.18,16.48,4.82,27.31,8.22,35.22Z"/><path class="cls-15" d="M366.69,411.49a72.21,72.21,0,0,1-71.62-62.56,73.08,73.08,0,0,1-.65-9.34V339a72.05,72.05,0,0,1,3.79-23c-.49-1-.94-2.12-1.35-3.23a40.57,40.57,0,0,1-2.44-13.06v-18.3h2.3v18.28A37.8,37.8,0,0,0,299,312c.44,1.2.93,2.36,1.46,3.46l.21.42-.15.45A69.78,69.78,0,0,0,296.72,339v.57a69.95,69.95,0,0,0,39.77,62.77,69.3,69.3,0,0,0,30.2,6.84Z"/><path class="cls-16" d="M224.45,411.49v-2.3a69.94,69.94,0,0,0,69.42-61.34,70.6,70.6,0,0,0,.52-8c0-.17,0-.24,0-.31v-.36c0-.22,0-.44,0-.65a69.66,69.66,0,0,0-3.77-22.06l-.15-.44.2-.43c.54-1.12,1-2.27,1.46-3.43a38,38,0,0,0,2.29-12.31V281.64h2.3v18.29A40.64,40.64,0,0,1,294.29,313c-.4,1.09-.85,2.16-1.34,3.21a71.94,71.94,0,0,1,3.74,22.3c0,.21,0,.46,0,.71v.36a3,3,0,0,1,0,.42,68.05,68.05,0,0,1-.53,8.13,72.2,72.2,0,0,1-71.7,63.36Z"/><path class="cls-17" d="M273,518.36a20.58,20.58,0,0,0,8.38-14.46h-2.32a18.47,18.47,0,0,1-7.4,12.59,18.25,18.25,0,0,1-10.88,3.36v-16h-2.3v33.82h2.3V522.14h.26a20.7,20.7,0,0,0,9.91-2.49l11.77,18h2.74l-12.56-19.24Z"/><rect class="cls-18" x="294.25" y="503.9" width="2.3" height="33.77"/><path class="cls-19" d="M356.42,503.54a17.07,17.07,0,1,0,17.07,17.07A17.06,17.06,0,0,0,356.42,503.54Zm0,31.83a14.77,14.77,0,1,1,14.77-14.76A14.78,14.78,0,0,1,356.42,535.37Z"/><path class="cls-20" d="M244.46,523.93a11.64,11.64,0,0,1-23.27,0V503.84h-2.3v20.44h0a13.94,13.94,0,0,0,27.86.18V503.84h-2.3Z"/><path class="cls-21" d="M333,503.9l0,.11a14,14,0,0,1,.58,4,13.79,13.79,0,0,1-27.4,2.17h-2.32A16.11,16.11,0,0,0,318.64,524h0v13.66h2.3V524a16.11,16.11,0,0,0,14.94-16,16.4,16.4,0,0,0-.52-4.07Z"/></svg>